# AST/ASF file generated using VICON BodyLanguage
# -----------------------------------------------
:version 1.10
:name VICON
:units
  mass 1.0
  length 0.45
  angle deg
:documentation
   .ast/.asf automatically generated from VICON data using
   VICON BodyBuilder and BodyLanguage model FoxedUp or BRILLIANT.MOD
:root
   order TX TY TZ RX RY RZ
   axis XYZ
   position 0 0 0  
   orientation 0 0 0 
:bonedata
  begin
     id 1 
     name lhipjoint
     direction 0.570549 -0.739093 0.358072 
     length 2.41801 
     axis 0 0 0  XYZ
  end
  begin
     id 2 
     name lfemur
     direction 0.34202 -0.939693 0  
     length 7.44434  
     axis 0 0 20  XYZ
    dof rx ry rz
    limits (-160.0 20.0)
           (-70.0 70.0)
           (-60.0 70.0)
  end
  begin
     id 3 
     name ltibia
     direction 0.34202 -0.939693 0   
     length 7.60047   
     axis 0 0 20   XYZ
    dof rx
    limits (-10.0 170.0)
  end
  begin
     id 4 
     name lfoot
     direction 0.0909041 -0.249757 0.964032   
     length 2.03437   
     axis -90 7.62852e-016 20   XYZ
    dof rx rz
    limits (-45.0 90.0)
           (-70.0 20.0)
  end
  begin
     id 5 
     name ltoes
     direction 1.53547e-011 -4.2174e-011 1   
     length 1.02054   
     axis -90 7.62852e-016 20   XYZ
    dof rx
    limits (-90.0 20.0)
  end
  begin
     id 6 
     name rhipjoint
     direction -0.558096 -0.746754 0.361784   
     length 2.3932  
     axis 0 0 0  XYZ 
  end
  begin
     id 7 
     name rfemur
     direction -0.34202 -0.939693 0   
     length 7.3886   
     axis 0 0 -20   XYZ
    dof rx ry rz
    limits (-160.0 20.0)
           (-70.0 70.0)
           (-70.0 60.0)
  end
  begin
     id 8 
     name rtibia
     direction -0.34202 -0.939693 0   
     length 7.4839   
     axis 0 0 -20   XYZ
    dof rx
    limits (-10.0 170.0)
 end
 begin
     id 9 
     name rfoot
     direction -0.114619 -0.314914 0.942174   
     length 2.25127  
     axis -90 -7.62852e-016 -20   XYZ
    dof rx rz
    limits (-45.0 90.0)
           (-20.0 70.0)
  end
  begin
     id 10 
     name rtoes
     direction -1.53518e-011 -4.21881e-011 1   
     length 1.11821   
     axis -90 -7.62852e-016 -20   XYZ
    dof rx
    limits (-90.0 20.0)
  end
  begin
     id 11 
     name lowerback
     direction -0.00902269 0.996426 -0.0839821   
     length 2.25052   
     axis 0 0 0   XYZ
    dof rx ry rz
    limits (-20.0 45.0)
           (-30.0 30.0)
           (-30.0 30.0)
  end
  begin
     id 12 
     name upperback
     direction 0.0370973 0.999169 -0.0168941   
     length 2.24876   
     axis 0 0 0   XYZ
    dof rx ry rz
    limits (-20.0 45.0)
           (-30.0 30.0)
           (-30.0 30.0)
  end
  begin
     id 13 
     name thorax
     direction 0.0402726 0.998931 0.0227027   
     length 2.26408   
     axis 0 0 0   XYZ
    dof rx ry rz
    limits (-20.0 45.0)
           (-30.0 30.0)
           (-30.0 30.0)
  end
  begin
     id 14 
     name lowerneck
     direction -0.0733697 0.98508 0.155675   
     length 1.58204   
     axis 0 0 0   XYZ
    dof rx ry rz
    limits (-20.0 45.0)
           (-30.0 30.0)
           (-30.0 30.0)
  end
  begin
     id 15 
     name upperneck
     direction 0.0426554 0.993501 -0.105526   
     length 1.61222   
     axis 0 0 0   XYZ
    dof rx ry rz
    limits (-20.0 45.0)
           (-30.0 30.0)
           (-30.0 30.0)
  end
  begin
     id 16
     name head
     direction 0.020792 0.998384 -0.0528868  
     length 1.61527  
     axis 0 0 0   XYZ
    dof rx ry rz
    limits (-20.0 45.0)
           (-30.0 30.0)
           (-30.0 30.0)
  end
  begin
     id 17 
     name lclavicle
     direction 0.967109 0.155462 -0.201325  
     length 3.59357  
     axis 0 0 0   XYZ
    dof ry rz
    limits (-20.0 10.0)
           (0.0 20.0)
  end
  begin
     id 18 
     name lhumerus
     direction 1 -4.48968e-011 2.38195e-027   
     length 5.38154   
     axis 180 -30 -90   XYZ
    dof rx ry rz
    limits (-60.0 90.0)
           (-90.0 90.0)
           (-90.0 90.0)
  end
  begin
     id 19
     name lradius
     direction 1 -4.48961e-011 4.85371e-027   
     length 3.33312   
     axis 180 -30 -90   XYZ
    dof rx
    limits (-10.0 170.0)
  end
  begin
     id 20
     name lwrist
     direction 1 -4.48961e-011 4.76515e-027   
     length 1.66656   
     axis -3.27502e-015 90 90   XYZ
    dof ry
    limits (-180.0 0.0)
 end
  begin
     id 21 
     name lhand
     direction 1 -4.48951e-011 9.53074e-027   
     length 0.710789   
     axis -6.08098e-015 90 90   XYZ
    dof rx rz
    limits (-90.0 90.0)
           (-45.0 45.0)
  end
  begin
     id 22 
     name lfingers
     direction 1 -4.48953e-011 1.90613e-026   
     length 0.573057   
     axis -1.21619e-014 90 90   XYZ
    dof rx
    limits (0.0 90.0)
  end
  begin
     id 23
     name lthumb
     direction 0.707107 -6.34973e-011 0.707107   
     length 0.822798   
     axis -90 45 -9.86923e-015   XYZ
    dof rx rz
    limits (-45.0 45.0)
           (-45.0 45.0)
  end
  begin
     id 24 
     name rclavicle
     direction -0.9585 0.265289 -0.104398   
     length 3.42039  
     axis 0 0 0   XYZ 
    dof ry rz
    limits (-10.0 20.0)
           (-20.0 0.0)
  end
  begin
     id 25 
     name rhumerus
     direction -1 -4.48977e-011 2.21478e-027  
     length 5.16954   
     axis 180 30 90   XYZ
    dof rx ry rz
    limits (-90.0 60.0)
           (-90.0 90.0)
           (-90.0 90.0)
  end
  begin
     id 26 
     name rradius
     direction -1 -4.48967e-011 5.63677e-027   
     length 3.38287   
     axis 180 30 90   XYZ
    dof rx
    limits (-10.0 170.0)
  end
  begin
     id 27 
     name rwrist
     direction -1 -4.48967e-011 4.76501e-027   
     length 1.69144   
     axis -3.27502e-015 -90 -90   XYZ
    dof ry
    limits (-180.0 0.0)
  end
  begin
     id 28
     name rhand
     direction -1 -4.48902e-011 9.53292e-027   
     length 0.817967   
     axis -6.08098e-015 -90 -90   XYZ
    dof rx rz
    limits (-90.0 90.0)
           (-45.0 45.0)
  end
  begin
     id 29
     name rfingers
     direction -1 -4.49012e-011 1.90561e-026   
     length 0.659466   
     axis -1.21619e-014 -90 -90   XYZ
    dof rx
    limits (0.0 90.0)
  end
  begin
     id 30
     name rthumb
     direction -0.707107 -6.34944e-011 0.707107   
     length 0.946865   
     axis -90 -45 9.86923e-015   XYZ
    dof rx rz
    limits (-45.0 45.0)
           (-45.0 45.0)
  end
:hierarchy
  begin
    root lhipjoint rhipjoint lowerback
    lhipjoint lfemur
    lfemur ltibia
    ltibia lfoot
    lfoot ltoes
    rhipjoint rfemur
    rfemur rtibia
    rtibia rfoot
    rfoot rtoes
    lowerback upperback
    upperback thorax
    thorax lowerneck lclavicle rclavicle
    lowerneck upperneck
    upperneck head
    lclavicle lhumerus
    lhumerus lradius
    lradius lwrist
    lwrist lhand lthumb
    lhand lfingers
    rclavicle rhumerus
    rhumerus rradius
    rradius rwrist
    rwrist rhand rthumb
    rhand rfingers
  end

#!OML:ASF F:\twosubjects\two\wednesday\Session 1\Justin1.ASF
:FULLY-SPECIFIED
:DEGREES
184
root 12.5816 17.5849 -11.6731 -366.802 -54.0131 -342.927
lowerback 10.2092 -1.81509 -11.0047
upperback 0.827252 -3.63118 1.10534
thorax -4.10655 -1.60943 7.86125
lowerneck -20.1443 -7.71664 -12.6989
upperneck 9.57977 -8.54373 10.3813
head 7.20748 -3.72032 4.3928
rclavicle 2.46493e-014 3.02153e-014
rhumerus -23.1297 29.4887 -41.1245
rradius 98.4517
rwrist -57.4766
rhand -10.811 10.6187
rfingers 7.12502
rthumb 15.2026 -18.8028
lclavicle 2.46493e-014 3.02153e-014
lhumerus -21.9593 2.81404 46.771
lradius 55.6333
lwrist -2.34597
lhand -8.89348 37.3201
lfingers 7.12502
lthumb 17.049 66.592
rfemur -47.297 -17.85 14.8578
rtibia 95.9882
rfoot -4.78708 15.8113
rtoes -0.342712
lfemur -5.90875 3.47623 -17.8578
ltibia 32.7478
lfoot -0.890394 8.43265
ltoes -38.8323
185
root 12.4345 17.7158 -11.5772 -368.356 -54.3697 -342.008
lowerback 10.6524 -1.80883 -11.5117
upperback 1.08956 -3.72563 1.11725
thorax -4.02067 -1.66689 8.19083
lowerneck -19.9649 -7.88895 -12.8
upperneck 9.25958 -8.84909 10.9753
head 7.14852 -3.82761 4.56765
rclavicle 5.58585e-014 -1.66979e-014
rhumerus -24.0289 28.9562 -42.1763
rradius 98.3779
rwrist -56.7731
rhand -12.0448 10.8863
rfingers 7.12502
rthumb 14.0138 -18.6213
lclavicle 5.58585e-014 -1.66979e-014
lhumerus -21.3093 2.86246 47.3143
lradius 56.7176
lwrist -1.74713
lhand -9.99165 37.15
lfingers 7.12502
lthumb 15.9917 66.5099
rfemur -47.4001 -18.3839 14.4224
rtibia 95.1211
rfoot -4.93087 15.4278
rtoes -0.16376
lfemur -5.18145 3.435 -18.3395
ltibia 33.069
lfoot 2.78578 7.74554
ltoes -35.2353
186
root 12.2873 17.844 -11.4724 -369.532 -54.4043 -341.382
lowerback 10.7812 -2.02893 -11.6641
upperback 1.45463 -4.03824 1.06627
thorax -3.62466 -1.86592 8.2489
lowerneck -19.4459 -8.04 -13.3698
upperneck 8.38819 -9.14531 12.481
head 6.93481 -3.89303 5.13112
rclavicle -4.67144e-014 3.18055e-015
rhumerus -24.8937 28.6045 -43.2643
rradius 98.7392
rwrist -56.2248
rhand -10.6981 12.2415
rfingers 7.12502
rthumb 15.3113 -17.1718
lclavicle -4.67144e-014 3.18055e-015
lhumerus -20.7502 3.13467 47.7046
lradius 58.0032
lwrist -1.27333
lhand -10.8151 37.1448
lfingers 7.12502
lthumb 15.1986 66.5666
rfemur -47.4532 -19.2629 14.1138
rtibia 93.9878
rfoot -5.29837 14.4821
rtoes -2.391
lfemur -4.86089 3.02038 -18.6921
ltibia 33.6551
lfoot 6.28246 7.0485
ltoes -28.9045
187
root 12.1489 17.9637 -11.4096 -369.15 -55.6041 -341.859
lowerback 10.4103 -2.08665 -11.3875
upperback 1.58893 -4.01645 1.35485
thorax -3.2765 -1.88794 8.37045
lowerneck -19.0503 -8.13898 -13.9383
upperneck 7.75516 -9.33749 13.7954
head 6.80243 -3.926 5.64446
rclavicle 3.35946e-014 1.59028e-015
rhumerus -25.2462 28.4418 -44.2391
rradius 98.7743
rwrist -55.9772
rhand -9.35087 11.6977
rfingers 7.12502
rthumb 16.6087 -17.6116
lclavicle 3.35946e-014 1.59028e-015
lhumerus -20.5902 3.59535 47.9901
lradius 59.4277
lwrist -1.01339
lhand -11.7019 37.0314
lfingers 7.12502
lthumb 14.3443 66.5158
rfemur -48.7104 -18.5759 15.3758
rtibia 92.6865
rfoot -5.22016 12.4767
rtoes -3.66525
lfemur -5.48159 3.29908 -18.0483
ltibia 34.4784
lfoot 9.40438 6.54172
ltoes -21.8652
188
root 12.0183 18.0829 -11.3428 -367.4 -56.3643 -344.274
lowerback 10.3994 -2.34545 -9.95461
upperback 1.90692 -4.16663 1.88041
thorax -2.96197 -2.01146 8.12178
lowerneck -19.0715 -8.23162 -13.9709
upperneck 7.33704 -9.52516 14.4908
head 6.74681 -3.97269 5.85564
rclavicle -4.59193e-014 9.54166e-015
rhumerus -25.4558 28.2263 -44.9277
rradius 98.8192
rwrist -55.785
rhand -12.431 11.3783
rfingers 7.12502
rthumb 13.6416 -18.1546
lclavicle -4.59193e-014 9.54166e-015
lhumerus -20.0225 4.08591 48.2476
lradius 60.5703
lwrist -0.921442
lhand -12.4646 36.7033
lfingers 7.12502
lthumb 13.6093 66.2384
rfemur -49.2219 -18.1358 17.5336
rtibia 91.1294
rfoot -5.0104 10.4356
rtoes -1.47863
lfemur -5.98483 3.1177 -16.2864
ltibia 35.4306
lfoot 11.887 5.54129
ltoes -16.2785
189
root 11.884 18.1806 -11.251 -366.933 -57.0432 -345.591
lowerback 10.7529 -2.41732 -9.0116
upperback 2.19205 -4.17545 2.19724
thorax -2.89917 -2.04113 7.93878
lowerneck -18.8669 -8.52749 -14.5174
upperneck 7.02254 -9.93333 15.4361
head 6.76592 -4.13141 6.20814
rclavicle 2.78299e-015 4.45278e-014
rhumerus -26.293 28.0871 -45.5452
rradius 98.9973
rwrist -55.3902
rhand -14.0493 11.5437
rfingers 7.12502
rthumb 12.0816 -18.0875
lclavicle 2.78299e-015 4.45278e-014
lhumerus -19.4994 4.28652 48.7484
lradius 61.7457
lwrist -1.02196
lhand -13.0961 36.4682
lfingers 7.12502
lthumb 13.0006 66.0431
rfemur -49.1529 -18.0277 18.6447
rtibia 89.5844
rfoot -5.25055 8.64918
rtoes -1.24036
lfemur -5.90567 3.0029 -15.3341
ltibia 36.372
lfoot 13.431 4.18371
ltoes -13.6062
190
root 11.7445 18.2514 -11.1589 -369.118 -57.3296 -343.279
lowerback 11.1236 -2.34053 -10.1515
upperback 1.90069 -4.25257 2.11939
thorax -3.31773 -2.03188 8.55612
lowerneck -18.079 -8.57865 -14.2669
upperneck 6.79271 -10.0907 15.0896
head 6.55158 -4.25862 6.03914
rclavicle -4.85035e-014 -2.38542e-015
rhumerus -27.8762 28.4379 -46.0697
rradius 99.2262
rwrist -54.8983
rhand -14.7975 11.8926
rfingers 7.12502
rthumb 11.36 -17.7797
lclavicle -4.85035e-014 -2.38542e-015
lhumerus -19.6876 4.10315 49.5962
lradius 63.1572
lwrist -1.2312
lhand -13.6015 36.3928
lfingers 7.12502
lthumb 12.5133 65.9981
rfemur -49.8141 -18.459 17.5008
rtibia 88.318
rfoot -5.45973 7.48131
rtoes -0.555397
lfemur -6.17558 2.63488 -16.7233
ltibia 37.0719
lfoot 13.7398 3.39049
ltoes -13.9453
191
root 11.6104 18.3147 -11.06 -370.827 -57.7566 -341.773
lowerback 11.6099 -2.29106 -10.6533
upperback 1.75638 -4.30946 2.05813
thorax -3.69578 -2.02359 8.82745
lowerneck -17.2951 -8.73254 -14.1631
upperneck 6.59064 -10.359 14.7807
head 6.37255 -4.4392 5.89465
rclavicle 2.70347e-014 1.19271e-014
rhumerus -29.3061 28.9416 -46.5014
rradius 99.5482
rwrist -54.5893
rhand -14.9264 12.1291
rfingers 7.12502
rthumb 11.2357 -17.5501
lclavicle 2.70347e-014 1.19271e-014
lhumerus -19.5479 3.81081 50.1757
lradius 64.2583
lwrist -1.26878
lhand -13.7787 36.1406
lfingers 7.12502
lthumb 12.3425 65.7562
rfemur -50.0308 -18.7313 16.8089
rtibia 86.8163
rfoot -5.67129 6.44899
rtoes 2.30709
lfemur -6.12923 2.36957 -17.5532
ltibia 37.5182
lfoot 12.4875 3.68682
ltoes -15.6262
192
root 11.4728 18.3793 -10.943 -370.828 -58.6108 -342.94
lowerback 12.2192 -2.30516 -9.35648
upperback 2.06532 -4.21408 2.20267
thorax -3.81021 -2.00038 8.2626
lowerneck -16.8086 -9.12362 -14.6393
upperneck 6.46797 -10.9408 15.4958
head 6.41938 -4.70804 6.1378
rclavicle 1.39149e-014 -3.18055e-014
rhumerus -30.2796 29.175 -47.0279
rradius 99.7336
rwrist -54.4323
rhand -14.8494 12.3039
rfingers 7.12502
rthumb 11.31 -17.3712
lclavicle 1.39149e-014 -3.18055e-014
lhumerus -18.8818 3.53183 50.5384
lradius 65.1306
lwrist -1.29157
lhand -13.7384 36.0798
lfingers 7.12502
lthumb 12.3814 65.6931
rfemur -49.0867 -18.7642 17.5929
rtibia 84.8711
rfoot -6.23542 5.12261
rtoes 4.06266
lfemur -5.30331 2.36475 -16.6982
ltibia 37.7724
lfoot 10.5104 4.32674
ltoes -15.7268
193
root 11.3279 18.4195 -10.8284 -370.751 -59.5921 -343.573
lowerback 12.1723 -2.25922 -8.33946
upperback 2.26826 -4.01315 2.25523
thorax -3.67934 -1.92882 7.6995
lowerneck -16.423 -9.30957 -14.9999
upperneck 6.38067 -11.309 16.4986
head 6.48398 -4.85155 6.48924
rclavicle 1.03368e-013 -1.27222e-014
rhumerus -32.064 30.5478 -47.1206
rradius 101.538
rwrist -55.4245
rhand -16.3297 12.4991
rfingers 7.12502
rthumb 9.8821 -17.249
lclavicle 1.03368e-013 -1.27222e-014
lhumerus -18.3406 3.17594 51.0529
lradius 66.3373
lwrist -1.13498
lhand -14.0771 36.9144
lfingers 7.12502
lthumb 12.0548 66.5472
rfemur -48.8101 -18.7011 18.3704
rtibia 82.8534
rfoot -6.77 3.82578
rtoes 3.14658
lfemur -5.04875 2.53671 -16.1423
ltibia 37.8538
lfoot 8.8982 4.64076
ltoes -13.0233
194
root 11.1857 18.4409 -10.7173 -371.287 -60.7026 -343.034
lowerback 11.8412 -2.19669 -8.05246
upperback 2.3484 -3.86998 2.16423
thorax -3.46595 -1.87528 7.39256
lowerneck -16.8091 -9.19601 -13.9662
upperneck 6.921 -11.3658 16.2299
head 6.64856 -4.84255 6.21391
rclavicle 3.02153e-014 -6.36111e-015
rhumerus -33.4186 31.3067 -47.4336
rradius 102.615
rwrist -55.9793
rhand -17.2989 12.2635
rfingers 7.12502
rthumb 8.94697 -17.5268
lclavicle 3.02153e-014 -6.36111e-015
lhumerus -18.0893 2.92839 51.4057
lradius 67.8242
lwrist -0.718407
lhand -14.3109 37.9189
lfingers 7.12502
lthumb 11.8293 67.5648
rfemur -49.2244 -18.4673 18.8412
rtibia 80.8356
rfoot -7.06782 2.60927
rtoes -0.76789
lfemur -5.23258 2.73133 -16.2452
ltibia 37.6865
lfoot 7.39549 5.14911
ltoes -10.3125
195
root 11.0401 18.4531 -10.6115 -372.472 -61.8078 -341.964
lowerback 11.7607 -2.18822 -8.14815
upperback 2.48562 -3.87054 1.99763
thorax -3.2818 -1.89081 7.25667
lowerneck -16.9886 -9.25777 -13.3447
upperneck 7.18909 -11.5514 15.8733
head 6.72826 -4.92493 5.96091
rclavicle 2.38542e-015 -3.4191e-014
rhumerus -33.9799 31.7656 -48.0631
rradius 102.736
rwrist -55.8904
rhand -17.1716 11.6398
rfingers 7.12502
rthumb 9.06979 -18.1452
lclavicle 2.38542e-015 -3.4191e-014
lhumerus -17.9562 2.78527 51.3797
lradius 69.1952
lwrist -0.257165
lhand -14.1413 38.3289
lfingers 7.12502
lthumb 11.9929 67.9653
rfemur -49.4627 -18.2545 19.1039
rtibia 78.8531
rfoot -7.10475 1.47995
rtoes -5.9869
lfemur -5.12979 2.73981 -16.5898
ltibia 37.143
lfoot 5.76157 5.84542
ltoes -10.0126
196
root 10.8889 18.457 -10.5157 -373.34 -62.8326 -341.118
lowerback 11.5715 -2.21266 -8.19118
upperback 2.55429 -3.89512 1.93184
thorax -3.10236 -1.91538 7.1975
lowerneck -16.522 -9.18304 -13.2434
upperneck 6.80653 -11.5657 16.3866
head 6.56736 -4.92817 6.12504
rclavicle -8.50798e-014 9.54166e-015
rhumerus -34.6757 32.5292 -48.4848
rradius 103.111
rwrist -55.9844
rhand -16.6751 11.3517
rfingers 7.12502
rthumb 9.54885 -18.4119
lclavicle -8.50798e-014 9.54166e-015
lhumerus -18.0061 2.53878 51.3104
lradius 70.47
lwrist 0.317535
lhand -13.6127 38.5433
lfingers 7.12502
lthumb 12.5025 68.1493
rfemur -49.7328 -18.0029 19.3952
rtibia 77.0234
rfoot -7.02578 0.763525
rtoes -6.58545
lfemur -5.15038 2.61202 -16.7269
ltibia 36.2247
lfoot 4.30159 6.13122
ltoes -10.4384
